<svg width="15" height="14" viewBox="0 0 15 14" fill="none" xmlns="http://www.w3.org/2000/svg">
<path d="M7.41822 12.2671C7.46365 12.2671 7.50908 12.2558 7.55452 12.2331C7.59995 12.2104 7.63403 12.1876 7.65674 12.1649L13.2451 6.57655C13.3814 6.44025 13.4808 6.28691 13.5433 6.11653C13.6057 5.94616 13.637 5.77578 13.637 5.6054C13.637 5.42367 13.6057 5.25045 13.5433 5.08575C13.4808 4.92106 13.3814 4.77624 13.2451 4.65129L10.3487 1.75488C10.2238 1.61858 10.0789 1.5192 9.91424 1.45672C9.74954 1.39425 9.57632 1.36302 9.39459 1.36302C9.22421 1.36302 9.05384 1.39425 8.88346 1.45672C8.71308 1.5192 8.55974 1.61858 8.42344 1.75488L8.23603 1.9423L9.49682 3.22013C9.66719 3.37914 9.79214 3.56088 9.87164 3.76533C9.95115 3.96978 9.99091 4.1856 9.99091 4.41276C9.99091 4.88982 9.82905 5.29021 9.50533 5.61392C9.18162 5.93764 8.78123 6.0995 8.30418 6.0995C8.07701 6.0995 7.85836 6.05974 7.64822 5.98023C7.43809 5.90072 7.25352 5.78146 7.0945 5.62244L5.81667 4.36165L2.83507 7.34325C2.801 7.37733 2.77544 7.41424 2.7584 7.45399C2.74137 7.49375 2.73285 7.53634 2.73285 7.58178C2.73285 7.67265 2.76692 7.75499 2.83507 7.82882C2.90322 7.90265 2.98273 7.93957 3.0736 7.93957C3.11904 7.93957 3.16447 7.92821 3.2099 7.90549C3.25534 7.88278 3.28941 7.86006 3.31213 7.83734L5.62926 5.52022L6.58337 6.47433L4.28328 8.79145C4.2492 8.82553 4.22365 8.86244 4.20661 8.9022C4.18957 8.94195 4.18105 8.98455 4.18105 9.02998C4.18105 9.12085 4.21513 9.20036 4.28328 9.26851C4.35143 9.33666 4.43094 9.37074 4.52181 9.37074C4.56724 9.37074 4.61267 9.35938 4.65811 9.33666C4.70354 9.31394 4.73762 9.29123 4.76033 9.26851L7.07746 6.96842L8.03157 7.92253L5.73148 10.2397C5.69741 10.2624 5.67185 10.2965 5.65481 10.3419C5.63778 10.3873 5.62926 10.4328 5.62926 10.4782C5.62926 10.5691 5.66333 10.6486 5.73148 10.7167C5.79963 10.7849 5.87914 10.8189 5.97001 10.8189C6.01545 10.8189 6.05804 10.8104 6.09779 10.7934C6.13755 10.7763 6.17446 10.7508 6.20854 10.7167L8.52567 8.41663L9.47978 9.37074L7.16265 11.6879C7.12857 11.7219 7.10302 11.7589 7.08598 11.7986C7.06894 11.8384 7.06042 11.881 7.06042 11.9264C7.06042 12.0173 7.09734 12.0968 7.17117 12.1649C7.245 12.2331 7.32735 12.2671 7.41822 12.2671ZM7.40118 13.6302C6.98091 13.6302 6.60892 13.491 6.28521 13.2127C5.96149 12.9345 5.77124 12.5852 5.71445 12.1649C5.32826 12.1081 5.00454 11.9491 4.7433 11.6879C4.48205 11.4266 4.32303 11.1029 4.26624 10.7167C3.88005 10.6599 3.55918 10.4981 3.30361 10.2311C3.04804 9.96422 2.89187 9.64334 2.83507 9.26851C2.40345 9.21172 2.05134 9.0243 1.77874 8.70627C1.50613 8.38823 1.36983 8.0134 1.36983 7.58178C1.36983 7.35461 1.41243 7.13596 1.49761 6.92583C1.5828 6.71569 1.70491 6.53112 1.86392 6.3721L5.81667 2.43639L8.04861 4.66833C8.07133 4.70241 8.1054 4.72796 8.15084 4.745C8.19627 4.76204 8.2417 4.77056 8.28714 4.77056C8.38937 4.77056 8.47455 4.73932 8.5427 4.67685C8.61085 4.61438 8.64493 4.53203 8.64493 4.4298C8.64493 4.38437 8.63641 4.33893 8.61937 4.2935C8.60234 4.24807 8.57678 4.21399 8.5427 4.19127L6.10631 1.75488C5.98137 1.61858 5.83655 1.5192 5.67185 1.45672C5.50715 1.39425 5.33394 1.36302 5.1522 1.36302C4.98182 1.36302 4.81145 1.39425 4.64107 1.45672C4.47069 1.5192 4.31735 1.61858 4.18105 1.75488L1.77874 4.17424C1.67651 4.27646 1.59132 4.39573 1.52317 4.53203C1.45502 4.66833 1.40959 4.80463 1.38687 4.94093C1.36415 5.07724 1.36415 5.21638 1.38687 5.35836C1.40959 5.50034 1.45502 5.6338 1.52317 5.75874L0.534984 6.74693C0.34189 6.48569 0.199909 6.19888 0.109041 5.88653C0.0181735 5.57417 -0.0159019 5.25897 0.00681508 4.94093C0.029532 4.6229 0.109041 4.31338 0.245343 4.01238C0.381645 3.71138 0.569059 3.44162 0.807587 3.20309L3.2099 0.800772C3.48251 0.539527 3.78635 0.340754 4.12142 0.204452C4.4565 0.0681508 4.80009 0 5.1522 0C5.50431 0 5.84791 0.0681508 6.18298 0.204452C6.51806 0.340754 6.81622 0.539527 7.07746 0.800772L7.26488 0.988187L7.45229 0.800772C7.72489 0.539527 8.02873 0.340754 8.36381 0.204452C8.69888 0.0681508 9.04248 0 9.39459 0C9.7467 0 10.0903 0.0681508 10.4254 0.204452C10.7604 0.340754 11.0586 0.539527 11.3199 0.800772L14.1992 3.68014C14.4605 3.94139 14.6592 4.24239 14.7955 4.58314C14.9318 4.9239 15 5.27033 15 5.62244C15 5.97455 14.9318 6.31815 14.7955 6.65322C14.6592 6.9883 14.4605 7.28646 14.1992 7.5477L8.61085 13.119C8.45184 13.278 8.26726 13.403 8.05713 13.4939C7.847 13.5847 7.62835 13.6302 7.40118 13.6302Z" fill="#3E4949"/>
</svg>
